#
#
#

mtllib GroundPlane.mtl


#
# Default Mesh
#
g Default Mesh


#
# Default Mesh_beige
#
usemtl Default Mesh_beige

v -4.965190 -0.053463 -4.965190
v 4.965190 -0.053463 -4.965190
v 4.965190 -0.053463 4.965190
v -4.965190 -0.053463 4.965190
v -4.965190 0.053463 -4.965190
v 4.965190 0.053463 -4.965190
v 4.965190 0.053463 4.965190
v -4.965190 0.053463 4.965190
vn -0.577350 -0.577350 -0.577350
vn 0.577350 -0.577350 -0.577350
vn 0.577350 -0.577350 0.577350
vn -0.577350 -0.577350 0.577350
vn -0.577350 0.577350 -0.577350
vn 0.577350 0.577350 -0.577350
vn 0.577350 0.577350 0.577350
vn -0.577350 0.577350 0.577350
f 1//1 2//2 3//3 4//4
f 5//5 6//6 2//2 1//1
f 6//6 7//7 3//3 2//2
f 7//7 8//8 4//4 3//3
f 8//8 5//5 1//1 4//4
f 5//5 8//8 7//7 6//6

#
# Default Mesh_default
#
usemtl Default Mesh_default

v -4.965190 -0.053463 -4.965190
v 4.965190 -0.053463 -4.965190
v 4.965190 -0.053463 4.965190
v -4.965190 -0.053463 4.965190
v -4.965190 0.053463 -4.965190
v 4.965190 0.053463 -4.965190
v 4.965190 0.053463 4.965190
v -4.965190 0.053463 4.965190

#
# Default Mesh_red
#
usemtl Default Mesh_red

v -4.965190 -0.053463 -4.965190
v 4.965190 -0.053463 -4.965190
v 4.965190 -0.053463 4.965190
v -4.965190 -0.053463 4.965190
v -4.965190 0.053463 -4.965190
v 4.965190 0.053463 -4.965190
v 4.965190 0.053463 4.965190
v -4.965190 0.053463 4.965190
